<svg preserveAspectRatio="none" width="100%" height="100%" overflow="visible" style="display: block;" viewBox="0 0 160 108" fill="none" xmlns="http://www.w3.org/2000/svg">
<g id="Icon">
<g id="Vector">
<path d="M25.2866 7.33142C25.2866 3.28239 28.569 0 32.618 0H137.959C142.008 0 145.291 3.28239 145.291 7.33142C145.291 11.3805 142.008 14.6628 137.959 14.6628H32.618C28.569 14.6628 25.2866 11.3805 25.2866 7.33142Z" fill="var(--fill-0, #3086FF)"/>
<path d="M0 7.33142C0 3.28239 3.28239 0 7.33142 0H7.60852C11.6576 0 14.9399 3.28239 14.9399 7.33142C14.9399 11.3805 11.6576 14.6628 7.60852 14.6628H7.33142C3.28239 14.6628 0 11.3805 0 7.33142Z" fill="var(--fill-0, #3086FF)"/>
<path d="M25.2866 38.3314C25.2866 34.2824 28.569 31 32.618 31H103.893C107.942 31 111.225 34.2824 111.225 38.3314C111.225 42.3805 107.942 45.6628 103.893 45.6628H32.618C28.569 45.6628 25.2866 42.3805 25.2866 38.3314Z" fill="var(--fill-0, #3086FF)"/>
<path d="M25.2866 69.3309C25.2866 65.2819 28.569 61.9995 32.618 61.9995H119.875C123.924 61.9995 127.206 65.2819 127.206 69.3309C127.206 73.38 123.924 76.6624 119.875 76.6624H32.618C28.569 76.6624 25.2866 73.38 25.2866 69.3309Z" fill="var(--fill-0, #3086FF)"/>
<path d="M25.2866 100.331C25.2866 96.2819 28.569 92.9995 32.618 92.9995H152.057C156.106 92.9995 159.389 96.2819 159.389 100.331C159.389 104.38 156.106 107.662 152.057 107.662H32.618C28.569 107.662 25.2866 104.38 25.2866 100.331Z" fill="var(--fill-0, #3086FF)"/>
<path d="M0 38.3314C0 34.2824 3.28239 31 7.33142 31H7.60852C11.6576 31 14.9399 34.2824 14.9399 38.3314C14.9399 42.3805 11.6576 45.6628 7.60852 45.6628H7.33142C3.28239 45.6628 0 42.3805 0 38.3314Z" fill="var(--fill-0, #3086FF)"/>
<path d="M0 69.3309C0 65.2819 3.28239 61.9995 7.33142 61.9995H7.60852C11.6576 61.9995 14.9399 65.2819 14.9399 69.3309C14.9399 73.38 11.6576 76.6624 7.60852 76.6624H7.33142C3.28239 76.6624 0 73.38 0 69.3309Z" fill="var(--fill-0, #3086FF)"/>
<path d="M0 100.331C0 96.2819 3.28239 92.9995 7.33142 92.9995H7.60852C11.6576 92.9995 14.9399 96.2819 14.9399 100.331C14.9399 104.38 11.6576 107.662 7.60852 107.662H7.33142C3.28239 107.662 0 104.38 0 100.331Z" fill="var(--fill-0, #3086FF)"/>
</g>
</g>
</svg>
