<svg preserveAspectRatio="none" width="100%" height="100%" overflow="visible" style="display: block;" viewBox="0 0 12 14" fill="none" xmlns="http://www.w3.org/2000/svg">
<g id="Group">
<g id="Vector">
</g>
<path id="Vector_2" d="M8.99795 4.78004L10.8541 6.76879C11.1553 7.0872 11.3948 7.46631 11.5586 7.88428C11.7225 8.30225 11.8076 8.75083 11.809 9.20418C11.8105 9.65754 11.7282 10.1067 11.5669 10.5259C11.4056 10.945 11.1686 11.3258 10.8694 11.6464C10.5702 11.9669 10.2147 12.2209 9.82354 12.3937C9.43235 12.5665 9.01312 12.6547 8.58999 12.6532C8.16685 12.6517 7.74818 12.5605 7.35808 12.3849C6.96797 12.2093 6.61414 11.9527 6.31695 11.63L5.69862 10.9675C5.61501 10.8811 5.5483 10.7777 5.5024 10.6633C5.45649 10.549 5.4323 10.426 5.43123 10.3015C5.43017 10.177 5.45225 10.0535 5.4962 9.93831C5.54014 9.82307 5.60507 9.71837 5.68719 9.6303C5.7693 9.54224 5.86697 9.47257 5.97448 9.42538C6.08199 9.37819 6.1972 9.35441 6.31338 9.35543C6.42957 9.35645 6.5444 9.38226 6.65117 9.43134C6.75794 9.48042 6.85453 9.55179 6.93528 9.64129L7.55478 10.3044C7.82872 10.5953 8.19904 10.758 8.58471 10.7571C8.97038 10.7561 9.33998 10.5915 9.61265 10.2993C9.88532 10.007 10.0389 9.61099 10.0396 9.19777C10.0404 8.78456 9.88842 8.38783 9.61687 8.09441L7.7607 6.10566C7.56008 5.89061 7.30525 5.74295 7.02746 5.68078C6.74966 5.61862 6.46098 5.64464 6.19678 5.75566C6.10267 5.79566 6.01439 5.83649 5.93195 5.87816L5.66128 6.01379C5.29962 6.18879 5.02137 6.26379 4.66728 5.88504C4.15862 5.34004 4.29045 4.83691 4.91053 4.37879C5.52823 3.92339 6.27529 3.71417 7.02196 3.78747C7.76864 3.86077 8.46778 4.21195 8.99795 4.78004ZM5.49212 1.02379L6.11045 1.68629C6.26992 1.86302 6.35822 2.09979 6.35633 2.3456C6.35445 2.59141 6.26253 2.8266 6.10037 3.0005C5.93822 3.1744 5.7188 3.27311 5.48938 3.27536C5.25995 3.27761 5.03889 3.18323 4.87378 3.01254L4.25487 2.35004C4.12038 2.20076 3.95949 2.08168 3.78159 1.99974C3.60369 1.91779 3.41234 1.87463 3.2187 1.87277C3.02507 1.87091 2.83302 1.91039 2.65378 1.98889C2.47454 2.0674 2.31168 2.18338 2.17471 2.33004C2.03775 2.47671 1.92942 2.65113 1.85604 2.84313C1.78266 3.03514 1.74571 3.24087 1.74734 3.44834C1.74897 3.65581 1.78914 3.86085 1.86552 4.05151C1.9419 4.24216 2.05295 4.41461 2.1922 4.55879L4.04837 6.54754C4.24899 6.76258 4.50382 6.91024 4.78161 6.97241C5.0594 7.03458 5.34809 7.00856 5.61228 6.89754C5.70639 6.85754 5.79467 6.8167 5.87712 6.77504L6.14778 6.63941C6.50945 6.46441 6.78828 6.38941 7.14178 6.76816C7.65045 7.31316 7.51862 7.81629 6.89853 8.27441C6.28084 8.72981 5.53378 8.93903 4.7871 8.86573C4.04042 8.79243 3.34129 8.44124 2.81112 7.87316L0.95495 5.88441C0.653752 5.56599 0.414315 5.18689 0.250427 4.76892C0.0865385 4.35095 0.00143555 3.90237 1.80056e-05 3.44902C-0.00139954 2.99566 0.0808964 2.54648 0.242167 2.12735C0.403438 1.70821 0.640499 1.32739 0.939699 1.00682C1.2389 0.686249 1.59433 0.432255 1.98552 0.259465C2.37672 0.0866747 2.79595 -0.00149951 3.21908 1.92918e-05C3.64221 0.00153809 4.06088 0.0927199 4.45099 0.268315C4.84109 0.443909 5.19493 0.701074 5.49212 1.02379Z" fill="var(--fill-0, black)"/>
</g>
</svg>
