<svg preserveAspectRatio="none" width="100%" height="100%" overflow="visible" style="display: block;" viewBox="0 0 34 34" fill="none" xmlns="http://www.w3.org/2000/svg">
<g id="Views Icon">
<path id="Vector" d="M17 12.75C15.8728 12.75 14.7918 13.1978 13.9948 13.9948C13.1978 14.7918 12.75 15.8728 12.75 17C12.75 18.1272 13.1978 19.2082 13.9948 20.0052C14.7918 20.8022 15.8728 21.25 17 21.25C18.1272 21.25 19.2082 20.8022 20.0052 20.0052C20.8022 19.2082 21.25 18.1272 21.25 17C21.25 15.8728 20.8022 14.7918 20.0052 13.9948C19.2082 13.1978 18.1272 12.75 17 12.75ZM17 24.0833C15.1214 24.0833 13.3197 23.3371 11.9913 22.0087C10.6629 20.6803 9.91667 18.8786 9.91667 17C9.91667 15.1214 10.6629 13.3197 11.9913 11.9913C13.3197 10.6629 15.1214 9.91667 17 9.91667C18.8786 9.91667 20.6803 10.6629 22.0087 11.9913C23.3371 13.3197 24.0833 15.1214 24.0833 17C24.0833 18.8786 23.3371 20.6803 22.0087 22.0087C20.6803 23.3371 18.8786 24.0833 17 24.0833ZM17 6.375C9.91667 6.375 3.8675 10.7808 1.41667 17C3.8675 23.2192 9.91667 27.625 17 27.625C24.0833 27.625 30.1325 23.2192 32.5833 17C30.1325 10.7808 24.0833 6.375 17 6.375Z" fill="var(--fill-0, black)"/>
</g>
</svg>
