<svg preserveAspectRatio="none" width="100%" height="100%" overflow="visible" style="display: block;" viewBox="0 0 34 34" fill="none" xmlns="http://www.w3.org/2000/svg">
<g id="Videos Icon">
<path id="Vector" d="M5.66667 11.3333H2.83333V28.3333C2.83333 29.0848 3.13184 29.8054 3.6632 30.3368C4.19455 30.8682 4.91522 31.1667 5.66667 31.1667H22.6667V28.3333H5.66667V11.3333Z" fill="var(--fill-0, black)"/>
<path id="Vector_2" d="M28.3333 2.83333H11.3333C10.5819 2.83333 9.86122 3.13184 9.32986 3.6632C8.79851 4.19455 8.5 4.91522 8.5 5.66667V22.6667C8.5 23.4181 8.79851 24.1388 9.32986 24.6701C9.86122 25.2015 10.5819 25.5 11.3333 25.5H28.3333C29.0848 25.5 29.8054 25.2015 30.3368 24.6701C30.8682 24.1388 31.1667 23.4181 31.1667 22.6667V5.66667C31.1667 4.91522 30.8682 4.19455 30.3368 3.6632C29.8054 3.13184 29.0848 2.83333 28.3333 2.83333ZM15.5833 19.8333V8.5L25.5 14.1667L15.5833 19.8333Z" fill="var(--fill-0, black)"/>
</g>
</svg>
