<svg width="100" height="14" viewBox="0 0 100 14" fill="none" xmlns="http://www.w3.org/2000/svg">
<g clip-path="url(#clip0_54_898)">
<path d="M0 14V0L18.1831 9.12054V0H21.2136V14L3.03051 5.05011V13.9937H0V14Z" fill="black"/>
<path d="M45.4577 2.8H27.2747V11.2H45.4577V14H27.2747C25.2566 14 24.2441 13.0646 24.2441 11.2V2.8C24.2441 0.93544 25.2566 0 27.2747 0H45.4577V2.8ZM45.4577 8.4H30.3052V5.6H45.4577V8.4Z" fill="black"/>
<path d="M51.511 14H48.4805V0H66.6635C68.6816 0 69.694 0.93544 69.694 2.8V5.6C69.694 7.46456 68.7021 8.4 66.7114 8.4H63.633L69.694 14H65.9042L59.8432 8.4H54.5415V5.6H66.6635V2.8H51.511V14Z" fill="black"/>
<path d="M75.7551 0V14H72.7246V0H75.7551Z" fill="black"/>
<path d="M81.8176 14H78.7871V2.8C78.7871 0.93544 79.7996 0 81.8176 0H96.9702C98.9882 0 100.001 0.93544 100.001 2.8V14H96.9702V8.4H84.8481V5.6H96.9702V2.8H81.8176V14Z" fill="black"/>
</g>
<defs>
<clipPath id="clip0_54_898">
<rect width="100" height="14" fill="white"/>
</clipPath>
</defs>
</svg>
