<svg preserveAspectRatio="none" width="100%" height="100%" overflow="visible" style="display: block;" viewBox="0 0 25 26" fill="none" xmlns="http://www.w3.org/2000/svg">
<g id="Group">
<g id="Vector" filter="url(#filter0_f_5_31)">
<path d="M2.00213 14.0381C2.01343 15.7699 2.49704 17.5567 3.22907 18.9992V19.0091C3.758 20.0567 4.48088 20.8841 5.30424 21.704L10.2771 19.8525C9.33627 19.3648 9.19271 19.066 8.51828 18.5207C7.82908 17.8116 7.31541 16.9975 6.99551 16.0429H6.98263L6.99551 16.033C6.78506 15.4026 6.7643 14.7335 6.75654 14.0381H2.00213Z" fill="url(#paint0_radial_5_31)"/>
</g>
<g id="Vector_2" filter="url(#filter1_f_5_31)">
<path d="M13.0407 3.01394C12.5492 4.77595 12.7371 6.48868 13.0407 7.48522C13.6083 7.48565 14.1551 7.55469 14.6735 7.69223C15.8621 8.00754 16.7027 8.62855 17.2179 9.11976L20.4059 5.93411C18.5173 4.16714 16.2445 3.01672 13.0407 3.01394Z" fill="url(#paint1_radial_5_31)"/>
</g>
<g id="Vector_3" filter="url(#filter2_f_5_31)">
<path d="M13.03 3.00001C10.6191 2.99995 8.39327 3.76645 6.56926 5.06187C5.892 5.54286 5.2705 6.09848 4.71708 6.71634C4.5721 8.10423 5.80237 9.81008 8.23869 9.79596C9.42077 8.39287 11.169 7.48507 13.1149 7.48507C13.1167 7.48507 13.1184 7.48522 13.1202 7.48522L13.0407 3.00032C13.0371 3.00032 13.0336 3.00001 13.03 3.00001Z" fill="url(#paint2_radial_5_31)"/>
</g>
<g id="Vector_4" filter="url(#filter3_f_5_31)">
<path d="M20.9874 14.5403L18.8355 16.0488C18.7411 16.6404 18.5289 17.2223 18.2184 17.7529C17.8626 18.3609 17.4228 18.8238 16.972 19.1763C15.6245 20.23 14.0543 20.4469 12.9612 20.4478C11.8314 22.4113 11.6334 23.3948 13.0407 24.9795C14.7821 24.9782 16.326 24.6575 17.6878 24.0568C18.6721 23.6226 19.5443 23.0562 20.3339 22.3284C21.3772 21.3666 22.1945 20.177 22.7523 18.8083C23.31 17.4397 23.6082 15.892 23.6082 14.2141L20.9874 14.5403Z" fill="url(#paint3_radial_5_31)"/>
</g>
<g id="Vector_5" filter="url(#filter4_f_5_31)">
<path d="M12.8818 11.7893V16.287H23.2351C23.3261 15.671 23.6273 14.8739 23.6273 14.2141C23.6273 13.443 23.5515 12.5011 23.4227 11.7893H12.8818Z" fill="var(--fill-0, #3086FF)"/>
</g>
<g id="Vector_6" filter="url(#filter5_f_5_31)">
<path d="M4.76648 6.55755C4.12758 7.27087 3.58175 8.06928 3.14898 8.93274C2.4065 10.4095 1.99996 12.2047 1.99996 13.9643C1.99996 13.9891 2.00198 14.0133 2.00214 14.0381C2.33096 14.6814 6.54418 14.5582 6.75654 14.0381C6.75628 14.0138 6.7536 13.9901 6.7536 13.9658C6.7536 13.2441 6.87308 12.7122 7.09087 12.0598C7.35955 11.255 7.78023 10.5139 8.31817 9.87535C8.44011 9.71649 8.76538 9.37497 8.86027 9.17012C8.89643 9.0921 8.79465 9.0483 8.78895 9.02084C8.78259 8.99012 8.64613 9.01482 8.61556 8.99194C8.51849 8.91929 8.32628 8.88135 8.20956 8.84763C7.96009 8.77555 7.54664 8.61659 7.31699 8.45182C6.5911 7.93097 5.45827 7.30882 4.76648 6.55755Z" fill="url(#paint4_radial_5_31)"/>
</g>
<g id="Vector_7" filter="url(#filter6_f_5_31)">
<path d="M7.33257 9.02391C9.01585 10.0644 9.49993 8.49873 10.6191 8.00881L8.67229 3.8893C7.95615 4.19644 7.27955 4.57802 6.65176 5.02387C5.71422 5.68972 4.88629 6.50223 4.20237 7.42689L7.33257 9.02391Z" fill="url(#paint5_radial_5_31)"/>
</g>
<g id="Vector_8" filter="url(#filter7_f_5_31)">
<path d="M8.01768 19.5343C5.75811 20.3666 5.40436 20.3965 5.19636 21.8254C5.59383 22.2212 6.02088 22.5873 6.47468 22.9192C7.69238 23.8099 10.0347 24.9962 13.0303 24.9962C13.0338 24.9962 13.0372 24.9958 13.0407 24.9958V20.3684C13.0384 20.3684 13.0358 20.3686 13.0336 20.3686C11.9118 20.3686 11.0154 20.0679 10.0963 19.5451C9.86973 19.4162 9.45861 19.7623 9.24962 19.6076C8.96138 19.3942 8.26769 19.7915 8.01768 19.5343Z" fill="url(#paint6_radial_5_31)"/>
</g>
<g id="Vector_9" opacity="0.5" filter="url(#filter8_f_5_31)">
<path d="M11.7174 20.2227V24.9157C12.1365 24.9657 12.5727 24.9962 13.0303 24.9962C13.489 24.9962 13.9328 24.9721 14.364 24.9279V20.2543C13.8808 20.3386 13.4256 20.3686 13.0336 20.3686C12.582 20.3686 12.1429 20.3149 11.7174 20.2227Z" fill="url(#paint7_linear_5_31)"/>
</g>
</g>
<defs>
<filter id="filter0_f_5_31" x="1.53205" y="13.568" width="9.21514" height="8.6061" filterUnits="userSpaceOnUse" color-interpolation-filters="sRGB">
<feFlood flood-opacity="0" result="BackgroundImageFix"/>
<feBlend mode="normal" in="SourceGraphic" in2="BackgroundImageFix" result="shape"/>
<feGaussianBlur stdDeviation="0.23504" result="effect1_foregroundBlur_5_31"/>
</filter>
<filter id="filter1_f_5_31" x="12.2684" y="2.54386" width="8.60758" height="7.04597" filterUnits="userSpaceOnUse" color-interpolation-filters="sRGB">
<feFlood flood-opacity="0" result="BackgroundImageFix"/>
<feBlend mode="normal" in="SourceGraphic" in2="BackgroundImageFix" result="shape"/>
<feGaussianBlur stdDeviation="0.23504" result="effect1_foregroundBlur_5_31"/>
</filter>
<filter id="filter2_f_5_31" x="4.23552" y="2.52993" width="9.35473" height="7.7362" filterUnits="userSpaceOnUse" color-interpolation-filters="sRGB">
<feFlood flood-opacity="0" result="BackgroundImageFix"/>
<feBlend mode="normal" in="SourceGraphic" in2="BackgroundImageFix" result="shape"/>
<feGaussianBlur stdDeviation="0.23504" result="effect1_foregroundBlur_5_31"/>
</filter>
<filter id="filter3_f_5_31" x="11.579" y="13.744" width="12.4994" height="11.7056" filterUnits="userSpaceOnUse" color-interpolation-filters="sRGB">
<feFlood flood-opacity="0" result="BackgroundImageFix"/>
<feBlend mode="normal" in="SourceGraphic" in2="BackgroundImageFix" result="shape"/>
<feGaussianBlur stdDeviation="0.23504" result="effect1_foregroundBlur_5_31"/>
</filter>
<filter id="filter4_f_5_31" x="12.4117" y="11.3193" width="11.6857" height="5.43779" filterUnits="userSpaceOnUse" color-interpolation-filters="sRGB">
<feFlood flood-opacity="0" result="BackgroundImageFix"/>
<feBlend mode="normal" in="SourceGraphic" in2="BackgroundImageFix" result="shape"/>
<feGaussianBlur stdDeviation="0.23504" result="effect1_foregroundBlur_5_31"/>
</filter>
<filter id="filter5_f_5_31" x="1.52989" y="6.08748" width="7.80822" height="8.8582" filterUnits="userSpaceOnUse" color-interpolation-filters="sRGB">
<feFlood flood-opacity="0" result="BackgroundImageFix"/>
<feBlend mode="normal" in="SourceGraphic" in2="BackgroundImageFix" result="shape"/>
<feGaussianBlur stdDeviation="0.23504" result="effect1_foregroundBlur_5_31"/>
</filter>
<filter id="filter6_f_5_31" x="0.897524" y="0.584454" width="13.0264" height="12.094" filterUnits="userSpaceOnUse" color-interpolation-filters="sRGB">
<feFlood flood-opacity="0" result="BackgroundImageFix"/>
<feBlend mode="normal" in="SourceGraphic" in2="BackgroundImageFix" result="shape"/>
<feGaussianBlur stdDeviation="1.65243" result="effect1_foregroundBlur_5_31"/>
</filter>
<filter id="filter7_f_5_31" x="4.72629" y="19.0456" width="8.7845" height="6.4206" filterUnits="userSpaceOnUse" color-interpolation-filters="sRGB">
<feFlood flood-opacity="0" result="BackgroundImageFix"/>
<feBlend mode="normal" in="SourceGraphic" in2="BackgroundImageFix" result="shape"/>
<feGaussianBlur stdDeviation="0.23504" result="effect1_foregroundBlur_5_31"/>
</filter>
<filter id="filter8_f_5_31" x="11.2473" y="19.7526" width="3.5868" height="5.71365" filterUnits="userSpaceOnUse" color-interpolation-filters="sRGB">
<feFlood flood-opacity="0" result="BackgroundImageFix"/>
<feBlend mode="normal" in="SourceGraphic" in2="BackgroundImageFix" result="shape"/>
<feGaussianBlur stdDeviation="0.23504" result="effect1_foregroundBlur_5_31"/>
</filter>
<radialGradient id="paint0_radial_5_31" cx="0" cy="0" r="1" gradientUnits="userSpaceOnUse" gradientTransform="translate(10.1776 21.5409) rotate(-92.3417) scale(10.8376 15.9342)">
<stop offset="0.141612" stop-color="#1ABD4D"/>
<stop offset="0.247515" stop-color="#6EC30D"/>
<stop offset="0.311547" stop-color="#8AC502"/>
<stop offset="0.366013" stop-color="#A2C600"/>
<stop offset="0.445673" stop-color="#C8C903"/>
<stop offset="0.540305" stop-color="#EBCB03"/>
<stop offset="0.615636" stop-color="#F7CD07"/>
<stop offset="0.699345" stop-color="#FDCD04"/>
<stop offset="0.771242" stop-color="#FDCE05"/>
<stop offset="0.860566" stop-color="#FFCE0A"/>
</radialGradient>
<radialGradient id="paint1_radial_5_31" cx="0" cy="0" r="1" gradientUnits="userSpaceOnUse" gradientTransform="translate(20.1077 8.88926) scale(7.52017 9.70274)">
<stop offset="0.408458" stop-color="#FB4E5A"/>
<stop offset="1" stop-color="#FF4540"/>
</radialGradient>
<radialGradient id="paint2_radial_5_31" cx="0" cy="0" r="1" gradientUnits="userSpaceOnUse" gradientTransform="translate(16.0008 1.5955) rotate(151.043) scale(12.0418 16.3324)">
<stop offset="0.231273" stop-color="#FF4541"/>
<stop offset="0.311547" stop-color="#FF4540"/>
<stop offset="0.457516" stop-color="#FF4640"/>
<stop offset="0.540305" stop-color="#FF473F"/>
<stop offset="0.699346" stop-color="#FF5138"/>
<stop offset="0.771242" stop-color="#FF5B33"/>
<stop offset="0.860566" stop-color="#FF6C29"/>
<stop offset="1" stop-color="#FF8C18"/>
</radialGradient>
<radialGradient id="paint3_radial_5_31" cx="0" cy="0" r="1" gradientUnits="userSpaceOnUse" gradientTransform="translate(13.1973 23.5722) rotate(-127.48) scale(31.4022 11.5942)">
<stop offset="0.131546" stop-color="#0CBA65"/>
<stop offset="0.209784" stop-color="#0BB86D"/>
<stop offset="0.297297" stop-color="#09B479"/>
<stop offset="0.396257" stop-color="#08AD93"/>
<stop offset="0.477124" stop-color="#0AA6A9"/>
<stop offset="0.568425" stop-color="#0D9CC6"/>
<stop offset="0.667385" stop-color="#1893DD"/>
<stop offset="0.768727" stop-color="#258BF1"/>
<stop offset="0.858506" stop-color="#3086FF"/>
</radialGradient>
<radialGradient id="paint4_radial_5_31" cx="0" cy="0" r="1" gradientUnits="userSpaceOnUse" gradientTransform="translate(12.1069 5.05369) rotate(96.624) scale(11.7225 16.2233)">
<stop offset="0.366013" stop-color="#FF4E3A"/>
<stop offset="0.457516" stop-color="#FF8A1B"/>
<stop offset="0.540305" stop-color="#FFA312"/>
<stop offset="0.615636" stop-color="#FFB60C"/>
<stop offset="0.771242" stop-color="#FFCD0A"/>
<stop offset="0.860566" stop-color="#FECF0A"/>
<stop offset="0.915033" stop-color="#FECF08"/>
<stop offset="1" stop-color="#FDCD01"/>
</radialGradient>
<radialGradient id="paint5_radial_5_31" cx="0" cy="0" r="1" gradientUnits="userSpaceOnUse" gradientTransform="translate(10.2054 4.9329) rotate(132.146) scale(5.82486 16.4308)">
<stop offset="0.315904" stop-color="#FF4C3C"/>
<stop offset="0.603818" stop-color="#FF692C"/>
<stop offset="0.726837" stop-color="#FF7825"/>
<stop offset="0.884534" stop-color="#FF8D1B"/>
<stop offset="1" stop-color="#FF9F13"/>
</radialGradient>
<radialGradient id="paint6_radial_5_31" cx="0" cy="0" r="1" gradientUnits="userSpaceOnUse" gradientTransform="translate(16.0009 26.3346) rotate(-151.043) scale(12.0418 16.3324)">
<stop offset="0.231273" stop-color="#0FBC5F"/>
<stop offset="0.311547" stop-color="#0FBC5F"/>
<stop offset="0.366013" stop-color="#0FBC5E"/>
<stop offset="0.457516" stop-color="#0FBC5D"/>
<stop offset="0.540305" stop-color="#12BC58"/>
<stop offset="0.699346" stop-color="#28BF3C"/>
<stop offset="0.771242" stop-color="#38C02B"/>
<stop offset="0.860566" stop-color="#52C218"/>
<stop offset="0.915033" stop-color="#67C30F"/>
<stop offset="1" stop-color="#86C504"/>
</radialGradient>
<linearGradient id="paint7_linear_5_31" x1="11.7174" y1="22.6094" x2="14.364" y2="22.6094" gradientUnits="userSpaceOnUse">
<stop stop-color="#0FBC5C"/>
<stop offset="1" stop-color="#0CBA65"/>
</linearGradient>
</defs>
</svg>
