<svg preserveAspectRatio="none" width="100%" height="100%" overflow="visible" style="display: block;" viewBox="0 0 31 22" fill="none" xmlns="http://www.w3.org/2000/svg">
<g id="g12">
<path id="path14" d="M30.3522 18.5646C29.9957 19.9169 28.9454 20.9818 27.6115 21.3432C25.194 22 15.5 22 15.5 22C15.5 22 5.80604 22 3.38849 21.3432C2.05474 20.9818 1.00425 19.9169 0.647782 18.5646C0 16.1137 0 11 0 11C0 11 0 5.88637 0.647782 3.43521C1.00425 2.08308 2.05474 1.01822 3.38849 0.656659C5.80604 0 15.5 0 15.5 0C15.5 0 25.194 0 27.6115 0.656659C28.9454 1.01822 29.9957 2.08308 30.3522 3.43521C31 5.88637 31 11 31 11C31 11 31 16.1137 30.3522 18.5646Z" fill="var(--fill-0, #ED1D24)"/>
<path id="path16" d="M12.3295 6.35717L20.4318 10.9998L12.3295 15.6429V6.35717Z" fill="var(--fill-0, white)"/>
</g>
</svg>
