<svg preserveAspectRatio="none" width="100%" height="100%" overflow="visible" style="display: block;" viewBox="0 0 16 16" fill="none" xmlns="http://www.w3.org/2000/svg">
<g id="Group">
<path id="Vector" d="M13.375 1H2.125C1.82663 1 1.54048 1.11853 1.3295 1.3295C1.11853 1.54048 1 1.82663 1 2.125V13.375C1 13.6734 1.11853 13.9595 1.3295 14.1705C1.54048 14.3815 1.82663 14.5 2.125 14.5H13.375C13.6734 14.5 13.9595 14.3815 14.1705 14.1705C14.3815 13.9595 14.5 13.6734 14.5 13.375V2.125C14.5 1.82663 14.3815 1.54048 14.1705 1.3295C13.9595 1.11853 13.6734 1 13.375 1Z" stroke="var(--stroke-0, black)" stroke-width="1.7" stroke-linecap="round" stroke-linejoin="round"/>
<path id="Vector_2" d="M5.5 7.375C5.99728 7.375 6.47419 7.17746 6.82583 6.82583C7.17746 6.47419 7.375 5.99728 7.375 5.5C7.375 5.00272 7.17746 4.52581 6.82583 4.17417C6.47419 3.82254 5.99728 3.625 5.5 3.625C5.00272 3.625 4.52581 3.82254 4.17417 4.17417C3.82254 4.52581 3.625 5.00272 3.625 5.5C3.625 5.99728 3.82254 6.47419 4.17417 6.82583C4.52581 7.17746 5.00272 7.375 5.5 7.375ZM9.17125 8.5825C9.24232 8.48735 9.33496 8.41044 9.44156 8.3581C9.54815 8.30575 9.66566 8.27947 9.7844 8.28141C9.90314 8.28335 10.0197 8.31346 10.1245 8.36926C10.2294 8.42506 10.3195 8.50496 10.3874 8.60238L13.678 13.321C14.0245 13.8182 13.6686 14.5 13.063 14.5H4.75L9.17125 8.5825Z" stroke="var(--stroke-0, black)" stroke-width="1.7" stroke-linecap="round" stroke-linejoin="round"/>
</g>
</svg>
