<svg preserveAspectRatio="none" width="100%" height="100%" overflow="visible" style="display: block;" viewBox="0 0 32 32" fill="none" xmlns="http://www.w3.org/2000/svg">
<g id="Attach Files">
<path id="Vector" d="M8 10.5467V21.3333C8 23.4551 8.84286 25.4899 10.3431 26.9902C11.8434 28.4905 13.8783 29.3333 16 29.3333C18.1217 29.3333 20.1566 28.4905 21.6569 26.9902C23.1571 25.4899 24 23.4551 24 21.3333V8C24 6.58551 23.4381 5.22896 22.4379 4.22876C21.4377 3.22857 20.0812 2.66667 18.6667 2.66667C17.2522 2.66667 15.8956 3.22857 14.8954 4.22876C13.8952 5.22896 13.3333 6.58551 13.3333 8V20.2427C13.3333 20.5929 13.4023 20.9396 13.5363 21.2632C13.6703 21.5867 13.8668 21.8807 14.1144 22.1283C14.362 22.3759 14.656 22.5723 14.9795 22.7063C15.303 22.8404 15.6498 22.9093 16 22.9093C16.7072 22.9093 17.3855 22.6284 17.8856 22.1283C18.3857 21.6282 18.6667 20.9499 18.6667 20.2427V10.6667" stroke="var(--stroke-0, white)" stroke-width="2" stroke-linecap="round" stroke-linejoin="round"/>
</g>
</svg>
