<svg preserveAspectRatio="none" width="100%" height="100%" overflow="visible" style="display: block;" viewBox="0 0 16 16" fill="none" xmlns="http://www.w3.org/2000/svg">
<g id="Detatch Neria Window">
<path id="Vector" d="M11.3333 1.33333C11.1565 1.33333 10.987 1.40357 10.8619 1.5286C10.7369 1.65362 10.6667 1.82319 10.6667 2C10.6667 2.17681 10.7369 2.34638 10.8619 2.4714C10.987 2.59643 11.1565 2.66667 11.3333 2.66667H12.3907L9.52867 5.52867C9.40723 5.6544 9.34003 5.8228 9.34155 5.9976C9.34307 6.1724 9.41318 6.33961 9.53679 6.46321C9.66039 6.58682 9.8276 6.65693 10.0024 6.65845C10.1772 6.65997 10.3456 6.59277 10.4713 6.47133L13.3333 3.60933V4.66667C13.3333 4.84348 13.4036 5.01305 13.5286 5.13807C13.6536 5.2631 13.8232 5.33333 14 5.33333C14.1768 5.33333 14.3464 5.2631 14.4714 5.13807C14.5964 5.01305 14.6667 4.84348 14.6667 4.66667V2C14.6667 1.82319 14.5964 1.65362 14.4714 1.5286C14.3464 1.40357 14.1768 1.33333 14 1.33333H11.3333ZM2.66667 12.3907V11.3333C2.66667 11.1565 2.59643 10.987 2.4714 10.8619C2.34638 10.7369 2.17681 10.6667 2 10.6667C1.82319 10.6667 1.65362 10.7369 1.5286 10.8619C1.40357 10.987 1.33333 11.1565 1.33333 11.3333V14C1.33333 14.1768 1.40357 14.3464 1.5286 14.4714C1.65362 14.5964 1.82319 14.6667 2 14.6667H4.66667C4.84348 14.6667 5.01305 14.5964 5.13807 14.4714C5.2631 14.3464 5.33333 14.1768 5.33333 14C5.33333 13.8232 5.2631 13.6536 5.13807 13.5286C5.01305 13.4036 4.84348 13.3333 4.66667 13.3333H3.60933L6.47133 10.4713C6.59277 10.3456 6.65997 10.1772 6.65845 10.0024C6.65693 9.8276 6.58682 9.66039 6.46321 9.53679C6.33961 9.41318 6.1724 9.34307 5.9976 9.34155C5.8228 9.34003 5.6544 9.40723 5.52867 9.52867L2.66667 12.3907Z" fill="var(--fill-0, white)"/>
</g>
</svg>
