<svg preserveAspectRatio="none" width="100%" height="100%" overflow="visible" style="display: block;" viewBox="0 0 20 20" fill="none" xmlns="http://www.w3.org/2000/svg">
<g id="material-symbols:refresh-rounded">
<path id="Vector" d="M10 16.6667C8.13889 16.6667 6.5625 16.0208 5.27083 14.7292C3.97917 13.4375 3.33333 11.8611 3.33333 10C3.33333 8.13889 3.97917 6.5625 5.27083 5.27083C6.5625 3.97917 8.13889 3.33333 10 3.33333C10.9583 3.33333 11.875 3.53111 12.75 3.92667C13.625 4.32222 14.375 4.88833 15 5.625V4.16667C15 3.93056 15.08 3.73278 15.24 3.57333C15.4 3.41389 15.5978 3.33389 15.8333 3.33333C16.0689 3.33278 16.2669 3.41278 16.4275 3.57333C16.5881 3.73389 16.6678 3.93167 16.6667 4.16667V8.33333C16.6667 8.56944 16.5867 8.7675 16.4267 8.9275C16.2667 9.0875 16.0689 9.16722 15.8333 9.16667H11.6667C11.4306 9.16667 11.2328 9.08667 11.0733 8.92667C10.9139 8.76667 10.8339 8.56889 10.8333 8.33333C10.8328 8.09778 10.9128 7.9 11.0733 7.74C11.2339 7.58 11.4317 7.5 11.6667 7.5H14.3333C13.8889 6.72222 13.2814 6.11111 12.5108 5.66667C11.7403 5.22222 10.9033 5 10 5C8.61111 5 7.43056 5.48611 6.45833 6.45833C5.48611 7.43056 5 8.61111 5 10C5 11.3889 5.48611 12.5694 6.45833 13.5417C7.43056 14.5139 8.61111 15 10 15C10.9444 15 11.8092 14.7606 12.5942 14.2817C13.3792 13.8028 13.9867 13.1603 14.4167 12.3542C14.5278 12.1597 14.6842 12.0244 14.8858 11.9483C15.0875 11.8722 15.2922 11.8686 15.5 11.9375C15.7222 12.0069 15.8819 12.1528 15.9792 12.375C16.0764 12.5972 16.0694 12.8056 15.9583 13C15.3889 14.1111 14.5764 15 13.5208 15.6667C12.4653 16.3333 11.2917 16.6667 10 16.6667Z" fill="var(--fill-0, black)"/>
</g>
</svg>
