<svg preserveAspectRatio="none" width="100%" height="100%" overflow="visible" style="display: block;" viewBox="0 0 22 22" fill="none" xmlns="http://www.w3.org/2000/svg">
<g id="i">
<path id="Vector" d="M21.1048 8.85512H10.8817V13.0351H16.7559C16.6615 13.6267 16.4495 14.2086 16.139 14.7393C15.7832 15.3473 15.3434 15.8101 14.8926 16.1626C13.5422 17.2185 11.9679 17.4344 10.8746 17.4344C8.1126 17.4344 5.75269 15.6128 4.83912 13.1377C4.80226 13.0479 4.77777 12.9551 4.74796 12.8634C4.54608 12.2335 4.43578 11.5663 4.43578 10.8729C4.43578 10.1512 4.55522 9.46036 4.77302 8.80791C5.63208 6.23466 8.04519 4.31268 10.8765 4.31268C11.446 4.31268 11.9945 4.38185 12.5145 4.51982C13.7031 4.83513 14.5438 5.45613 15.059 5.94733L18.1674 2.84104C16.2766 1.07197 13.8117 2.67471e-09 10.8714 2.67471e-09C8.52081 -5.1624e-05 6.35066 0.747263 4.5723 2.01025C3.1301 3.0345 1.9473 4.40584 1.14905 5.9985C0.406558 7.47521 0 9.11169 0 10.8712C0 12.6308 0.40718 14.2843 1.14967 15.7474V15.7573C1.93392 17.3105 3.08077 18.6479 4.47463 19.6674C5.69233 20.5581 7.87577 21.7443 10.8714 21.7443C12.5941 21.7443 14.1209 21.4274 15.4673 20.8335C16.4387 20.405 17.2993 19.8462 18.0785 19.1279C19.108 18.1789 19.9143 17.0051 20.4647 15.6545C21.0151 14.304 21.3094 12.7768 21.3094 11.121C21.3094 10.3499 21.2335 9.56679 21.1048 8.85505V8.85512Z" fill="var(--fill-0, black)"/>
</g>
</svg>
