<svg preserveAspectRatio="none" width="100%" height="100%" overflow="visible" style="display: block;" viewBox="0 0 22 22" fill="none" xmlns="http://www.w3.org/2000/svg">
<g id="heroicons-solid:arrow-up">
<path id="Vector" fill-rule="evenodd" clip-rule="evenodd" d="M3.6223 10.6777C3.41608 10.4714 3.30024 10.1917 3.30024 9.9C3.30024 9.60832 3.41608 9.32858 3.6223 9.1223L10.2223 2.5223C10.4286 2.31608 10.7083 2.20023 11 2.20023C11.2917 2.20023 11.5714 2.31608 11.7777 2.5223L18.3777 9.1223C18.5781 9.32976 18.689 9.60762 18.6864 9.89604C18.6839 10.1845 18.5683 10.4604 18.3643 10.6643C18.1604 10.8682 17.8845 10.9839 17.596 10.9864C17.3076 10.9889 17.0298 10.8781 16.8223 10.6777L12.1 5.9554V18.7C12.1 18.9917 11.9841 19.2715 11.7778 19.4778C11.5715 19.6841 11.2917 19.8 11 19.8C10.7083 19.8 10.4285 19.6841 10.2222 19.4778C10.0159 19.2715 9.9 18.9917 9.9 18.7V5.9554L5.1777 10.6777C4.97142 10.8839 4.69168 10.9998 4.4 10.9998C4.10832 10.9998 3.82858 10.8839 3.6223 10.6777Z" fill="var(--fill-0, white)"/>
</g>
</svg>
